<mxfile host="app.diagrams.net" modified="2023-06-12T12:02:46.286Z" agent="Mozilla/5.0 (Macintosh; Intel Mac OS X 10_15_7) AppleWebKit/537.36 (KHTML, like Gecko) Chrome/112.0.0.0 Safari/537.36" etag="OrFwbZUxmto3pBjVoNxb" version="21.3.7" type="github">
  <diagram name="Page-1" id="-vkluJTVsReIU6u_RPwR">
    <mxGraphModel dx="1026" dy="591" grid="1" gridSize="10" guides="1" tooltips="1" connect="1" arrows="1" fold="1" page="1" pageScale="1" pageWidth="850" pageHeight="1100" math="0" shadow="0">
      <root>
        <mxCell id="0" />
        <mxCell id="1" parent="0" />
        <mxCell id="CHihrCVS006sC6KFYZ_e-8" value="" style="rounded=1;whiteSpace=wrap;html=1;" vertex="1" parent="1">
          <mxGeometry x="40" y="120" width="760" height="360" as="geometry" />
        </mxCell>
        <mxCell id="CHihrCVS006sC6KFYZ_e-2" value="" style="sketch=0;points=[[0,0,0],[0.25,0,0],[0.5,0,0],[0.75,0,0],[1,0,0],[0,1,0],[0.25,1,0],[0.5,1,0],[0.75,1,0],[1,1,0],[0,0.25,0],[0,0.5,0],[0,0.75,0],[1,0.25,0],[1,0.5,0],[1,0.75,0]];outlineConnect=0;fontColor=#232F3E;gradientColor=#FF4F8B;gradientDirection=north;fillColor=#BC1356;strokeColor=#ffffff;dashed=0;verticalLabelPosition=bottom;verticalAlign=top;align=center;html=1;fontSize=12;fontStyle=0;aspect=fixed;shape=mxgraph.aws4.resourceIcon;resIcon=mxgraph.aws4.eventbridge;" vertex="1" parent="1">
          <mxGeometry x="260" y="258" width="60" height="60" as="geometry" />
        </mxCell>
        <mxCell id="CHihrCVS006sC6KFYZ_e-5" value="" style="shape=image;html=1;verticalAlign=top;verticalLabelPosition=bottom;labelBackgroundColor=#ffffff;imageAspect=0;aspect=fixed;image=https://cdn2.iconfinder.com/data/icons/social-media-2285/512/1_Slack_colored_svg-128.png" vertex="1" parent="1">
          <mxGeometry x="620" y="318" width="60" height="60" as="geometry" />
        </mxCell>
        <mxCell id="CHihrCVS006sC6KFYZ_e-6" value="" style="shape=image;html=1;verticalAlign=top;verticalLabelPosition=bottom;labelBackgroundColor=#ffffff;imageAspect=0;aspect=fixed;image=https://cdn0.iconfinder.com/data/icons/logos-microsoft-office-365/128/Microsoft_Office-07-128.png" vertex="1" parent="1">
          <mxGeometry x="620" y="190" width="60" height="60" as="geometry" />
        </mxCell>
        <mxCell id="CHihrCVS006sC6KFYZ_e-7" value="&lt;h1 style=&quot;line-height: 80%;&quot;&gt;&lt;span style=&quot;&quot;&gt;&lt;font style=&quot;font-size: 18px;&quot;&gt;MEA Notification Hub Architecture&lt;/font&gt;&lt;/span&gt;&lt;/h1&gt;This hub serves as a crucial tool, enabling us to effortlessly track and monitor the states of MEA Glue ETL jobs." style="text;html=1;strokeColor=none;fillColor=none;spacing=5;spacingTop=-20;whiteSpace=wrap;overflow=hidden;rounded=0;labelBackgroundColor=default;labelBorderColor=none;align=center;" vertex="1" parent="1">
          <mxGeometry x="9" y="11" width="311" height="89" as="geometry" />
        </mxCell>
        <mxCell id="CHihrCVS006sC6KFYZ_e-9" value="&lt;font style=&quot;font-size: 11px;&quot;&gt;AWS EventBridge&lt;/font&gt;" style="text;html=1;strokeColor=none;fillColor=none;align=center;verticalAlign=middle;whiteSpace=wrap;rounded=0;" vertex="1" parent="1">
          <mxGeometry x="240" y="314.5" width="100" height="22.5" as="geometry" />
        </mxCell>
        <mxCell id="CHihrCVS006sC6KFYZ_e-10" value="&lt;font style=&quot;font-size: 11px;&quot;&gt;MS Outlook&lt;/font&gt;" style="text;html=1;strokeColor=none;fillColor=none;align=center;verticalAlign=middle;whiteSpace=wrap;rounded=0;" vertex="1" parent="1">
          <mxGeometry x="615" y="245.5" width="70" height="22.5" as="geometry" />
        </mxCell>
        <mxCell id="CHihrCVS006sC6KFYZ_e-11" value="&lt;font style=&quot;font-size: 11px;&quot;&gt;Slack&lt;/font&gt;" style="text;html=1;strokeColor=none;fillColor=none;align=center;verticalAlign=middle;whiteSpace=wrap;rounded=0;" vertex="1" parent="1">
          <mxGeometry x="620" y="379" width="60" height="20" as="geometry" />
        </mxCell>
        <mxCell id="CHihrCVS006sC6KFYZ_e-12" value="" style="endArrow=classic;html=1;rounded=0;" edge="1" parent="1" source="CHihrCVS006sC6KFYZ_e-14" target="CHihrCVS006sC6KFYZ_e-2">
          <mxGeometry width="50" height="50" relative="1" as="geometry">
            <mxPoint x="360" y="280" as="sourcePoint" />
            <mxPoint x="410" y="230" as="targetPoint" />
          </mxGeometry>
        </mxCell>
        <mxCell id="CHihrCVS006sC6KFYZ_e-14" value="" style="sketch=0;points=[[0,0,0],[0.25,0,0],[0.5,0,0],[0.75,0,0],[1,0,0],[0,1,0],[0.25,1,0],[0.5,1,0],[0.75,1,0],[1,1,0],[0,0.25,0],[0,0.5,0],[0,0.75,0],[1,0.25,0],[1,0.5,0],[1,0.75,0]];outlineConnect=0;fontColor=#232F3E;gradientColor=#945DF2;gradientDirection=north;fillColor=#5A30B5;strokeColor=#ffffff;dashed=0;verticalLabelPosition=bottom;verticalAlign=top;align=center;html=1;fontSize=12;fontStyle=0;aspect=fixed;shape=mxgraph.aws4.resourceIcon;resIcon=mxgraph.aws4.glue;" vertex="1" parent="1">
          <mxGeometry x="80" y="258" width="60" height="60" as="geometry" />
        </mxCell>
        <mxCell id="CHihrCVS006sC6KFYZ_e-15" value="" style="sketch=0;points=[[0,0,0],[0.25,0,0],[0.5,0,0],[0.75,0,0],[1,0,0],[0,1,0],[0.25,1,0],[0.5,1,0],[0.75,1,0],[1,1,0],[0,0.25,0],[0,0.5,0],[0,0.75,0],[1,0.25,0],[1,0.5,0],[1,0.75,0]];outlineConnect=0;fontColor=#232F3E;gradientColor=#FF4F8B;gradientDirection=north;fillColor=#BC1356;strokeColor=#ffffff;dashed=0;verticalLabelPosition=bottom;verticalAlign=top;align=center;html=1;fontSize=12;fontStyle=0;aspect=fixed;shape=mxgraph.aws4.resourceIcon;resIcon=mxgraph.aws4.sns;" vertex="1" parent="1">
          <mxGeometry x="450" y="258" width="60" height="60" as="geometry" />
        </mxCell>
        <mxCell id="CHihrCVS006sC6KFYZ_e-16" value="" style="endArrow=classic;html=1;rounded=0;exitX=1;exitY=0.5;exitDx=0;exitDy=0;exitPerimeter=0;entryX=0;entryY=0.5;entryDx=0;entryDy=0;entryPerimeter=0;" edge="1" parent="1" source="CHihrCVS006sC6KFYZ_e-2" target="CHihrCVS006sC6KFYZ_e-15">
          <mxGeometry width="50" height="50" relative="1" as="geometry">
            <mxPoint x="150" y="298" as="sourcePoint" />
            <mxPoint x="270" y="298" as="targetPoint" />
          </mxGeometry>
        </mxCell>
        <mxCell id="CHihrCVS006sC6KFYZ_e-17" value="" style="endArrow=classic;html=1;rounded=0;exitX=1;exitY=0.5;exitDx=0;exitDy=0;exitPerimeter=0;entryX=0;entryY=0.5;entryDx=0;entryDy=0;strokeColor=#CCCC00;" edge="1" parent="1" source="CHihrCVS006sC6KFYZ_e-15" target="CHihrCVS006sC6KFYZ_e-6">
          <mxGeometry width="50" height="50" relative="1" as="geometry">
            <mxPoint x="330" y="298" as="sourcePoint" />
            <mxPoint x="460" y="298" as="targetPoint" />
          </mxGeometry>
        </mxCell>
        <mxCell id="CHihrCVS006sC6KFYZ_e-18" value="" style="endArrow=classic;html=1;rounded=0;entryX=0;entryY=0.5;entryDx=0;entryDy=0;dashed=1;strokeColor=#CC0000;" edge="1" parent="1" target="CHihrCVS006sC6KFYZ_e-5">
          <mxGeometry width="50" height="50" relative="1" as="geometry">
            <mxPoint x="510" y="290" as="sourcePoint" />
            <mxPoint x="630" y="230" as="targetPoint" />
          </mxGeometry>
        </mxCell>
        <mxCell id="CHihrCVS006sC6KFYZ_e-19" value="&lt;font style=&quot;font-size: 11px;&quot;&gt;AWS Glue&lt;/font&gt;" style="text;html=1;strokeColor=none;fillColor=none;align=center;verticalAlign=middle;whiteSpace=wrap;rounded=0;" vertex="1" parent="1">
          <mxGeometry x="60" y="317" width="100" height="17" as="geometry" />
        </mxCell>
        <mxCell id="CHihrCVS006sC6KFYZ_e-20" value="&lt;font style=&quot;font-size: 11px;&quot;&gt;AWS SNS&lt;/font&gt;" style="text;html=1;strokeColor=none;fillColor=none;align=center;verticalAlign=middle;whiteSpace=wrap;rounded=0;" vertex="1" parent="1">
          <mxGeometry x="430" y="316" width="100" height="19.5" as="geometry" />
        </mxCell>
        <mxCell id="CHihrCVS006sC6KFYZ_e-21" value="&lt;font style=&quot;font-size: 10px;&quot;&gt;Alert messages go to a specific channel in MEA Data Slack workspace.&lt;/font&gt;" style="text;html=1;strokeColor=none;fillColor=none;align=center;verticalAlign=middle;whiteSpace=wrap;rounded=0;" vertex="1" parent="1">
          <mxGeometry x="680" y="379" width="100" height="30" as="geometry" />
        </mxCell>
        <mxCell id="CHihrCVS006sC6KFYZ_e-22" value="&lt;font style=&quot;font-size: 10px;&quot;&gt;&lt;b&gt;Topic&lt;/b&gt;: mea-data-glue-etl-failure-notification&lt;/font&gt;" style="text;html=1;strokeColor=none;fillColor=none;align=center;verticalAlign=middle;whiteSpace=wrap;rounded=0;" vertex="1" parent="1">
          <mxGeometry x="425" y="334" width="110" height="30" as="geometry" />
        </mxCell>
        <mxCell id="CHihrCVS006sC6KFYZ_e-23" value="&lt;font style=&quot;font-size: 10px;&quot;&gt;&lt;b&gt;Rule&lt;/b&gt;:&amp;nbsp;mea-data-glue-etl-failure-notification-rule&lt;/font&gt;" style="text;html=1;strokeColor=none;fillColor=none;align=center;verticalAlign=middle;whiteSpace=wrap;rounded=0;" vertex="1" parent="1">
          <mxGeometry x="230" y="334" width="120" height="30" as="geometry" />
        </mxCell>
        <mxCell id="CHihrCVS006sC6KFYZ_e-24" value="&lt;div style=&quot;font-size: 9px;&quot;&gt;&lt;font color=&quot;#5c5c5c&quot; style=&quot;font-size: 9px;&quot;&gt;&quot;severity&quot;: [&quot;ERROR&quot;],&lt;/font&gt;&lt;/div&gt;&lt;div style=&quot;font-size: 9px;&quot;&gt;&lt;font color=&quot;#5c5c5c&quot; style=&quot;font-size: 9px;&quot;&gt;&amp;nbsp; &amp;nbsp; &quot;state&quot;: [&quot;FAILED&quot;, &quot;ERROR&quot;, &quot;STOPPED&quot;]&lt;/font&gt;&lt;/div&gt;" style="text;html=1;strokeColor=none;fillColor=none;align=center;verticalAlign=middle;whiteSpace=wrap;rounded=0;" vertex="1" parent="1">
          <mxGeometry x="195" y="370" width="190" height="21" as="geometry" />
        </mxCell>
      </root>
    </mxGraphModel>
  </diagram>
</mxfile>
